<svg width="67" height="37" viewBox="0 0 67 37" fill="none" xmlns="http://www.w3.org/2000/svg">
<g clip-path="url(#clip0_3397_6937)">
<path d="M60.893 0H3C1.34315 0 0 1.34315 0 3V33.862C0 35.5189 1.34315 36.862 3 36.862H60.893C62.5499 36.862 63.893 35.5189 63.893 33.862V3C63.893 1.34315 62.5499 0 60.893 0Z" fill="#3643BA"/>
<path d="M13.6829 22.0002H12.571L12.7029 21.3103L13.7048 21.3147C14.115 21.3176 14.4563 21.2341 14.7288 21.0642C15.0012 20.8913 15.2151 20.657 15.3704 20.3611C15.5256 20.0622 15.6326 19.7239 15.6912 19.3459L15.8538 18.2473C15.886 18.0159 15.8977 17.7873 15.8889 17.5618C15.8801 17.3332 15.8391 17.1252 15.7659 16.9377C15.6926 16.7502 15.574 16.5994 15.4099 16.4851C15.2458 16.3708 15.0232 16.3093 14.7419 16.3005L13.5378 16.2961L13.6609 15.6018L14.7639 15.6062C15.1418 15.615 15.4612 15.6941 15.7219 15.8435C15.9827 15.99 16.1877 16.1877 16.3372 16.4368C16.4866 16.6828 16.5847 16.9626 16.6316 17.2761C16.6785 17.5896 16.6799 17.9177 16.636 18.2605L16.4734 19.3459C16.4148 19.7297 16.3137 20.0842 16.1702 20.4094C16.0266 20.7346 15.8391 21.0173 15.6077 21.2576C15.3762 21.4949 15.0994 21.6794 14.7771 21.8113C14.4578 21.9402 14.093 22.0032 13.6829 22.0002ZM14.1223 15.6018L13.0105 22.0002H12.2239L13.3313 15.6018H14.1223Z" fill="#FAFAFA"/>
<path d="M20.6702 21.3103L20.5471 22.0002H17.8489L17.9719 21.3103H20.6702ZM19.1057 15.6018L17.9939 22.0002H17.2073L18.3147 15.6018H19.1057ZM20.8196 18.3528L20.7009 19.0427H18.363L18.4861 18.3528H20.8196ZM21.6194 15.6018L21.4963 16.2961H18.8376L18.9607 15.6018H21.6194Z" fill="#FAFAFA"/>
<path d="M23.9968 19.0076H22.6829L22.7971 18.3264L23.9265 18.3352C24.1345 18.3323 24.3176 18.2839 24.4758 18.1902C24.637 18.0935 24.7659 17.9646 24.8625 17.8035C24.9622 17.6423 25.0237 17.4607 25.0471 17.2585C25.0706 17.0769 25.0647 16.9158 25.0295 16.7751C24.9944 16.6316 24.9226 16.5188 24.8142 16.4368C24.7087 16.3518 24.5579 16.3064 24.3616 16.3005L23.3289 16.2961L22.3357 22.0002H21.5491L22.6565 15.6018L24.3792 15.6062C24.637 15.612 24.8611 15.6545 25.0515 15.7336C25.2449 15.8127 25.4031 15.9241 25.5261 16.0676C25.6521 16.2112 25.7415 16.384 25.7942 16.5862C25.8499 16.7883 25.8674 17.0168 25.8469 17.2717C25.8235 17.5618 25.7385 17.8137 25.592 18.0276C25.4456 18.2414 25.2566 18.4143 25.0251 18.5461C24.7937 18.678 24.5417 18.7644 24.2693 18.8054L23.9968 19.0076ZM23.4519 22.0002H21.8127L22.3928 21.3103L23.4783 21.3191C23.7126 21.3161 23.9133 21.2619 24.0803 21.1565C24.2502 21.0481 24.385 20.9045 24.4846 20.7258C24.5872 20.5471 24.6516 20.3464 24.678 20.1238C24.6985 19.9421 24.6956 19.7693 24.6692 19.6052C24.6428 19.4382 24.5769 19.3005 24.4714 19.1921C24.366 19.0837 24.2078 19.0237 23.9968 19.0119L22.9333 19.0076L23.0652 18.3264L24.3835 18.3308L24.5198 18.5769C24.7688 18.6238 24.9651 18.7263 25.1086 18.8845C25.2522 19.0398 25.3503 19.2273 25.4031 19.447C25.4587 19.6667 25.4763 19.8909 25.4558 20.1194C25.4265 20.4973 25.3254 20.8284 25.1526 21.1125C24.9797 21.3967 24.7483 21.6179 24.4583 21.7761C24.1682 21.9314 23.8328 22.0061 23.4519 22.0002Z" fill="#FAFAFA"/>
<path d="M28.2463 15.6018L27.1345 22.0002H26.3435L27.4553 15.6018H28.2463Z" fill="#FAFAFA"/>
<path d="M31.4807 15.6018L30.3689 22.0002H29.5867L30.6985 15.6018H31.4807ZM33.1111 15.6018L32.988 16.2961H28.9451L29.0681 15.6018H33.1111Z" fill="#FAFAFA"/>
<path d="M38.2307 19.97L38.9998 19.9612C38.9412 20.3743 38.8167 20.7434 38.6262 21.0686C38.4387 21.3938 38.1868 21.6487 37.8704 21.8332C37.5569 22.0149 37.179 22.0998 36.7366 22.0881C36.3762 22.0793 36.0803 21.9914 35.8489 21.8244C35.6204 21.6575 35.4446 21.4407 35.3215 21.1741C35.2014 20.9075 35.1267 20.6189 35.0974 20.3083C35.0681 19.9949 35.0725 19.6887 35.1106 19.3899L35.2952 18.2078C35.3479 17.8738 35.4358 17.5456 35.5588 17.2234C35.6819 16.8982 35.8459 16.6052 36.051 16.3445C36.2561 16.0837 36.5037 15.8786 36.7937 15.7292C37.0837 15.5769 37.4207 15.5051 37.8044 15.5139C38.2234 15.5227 38.5544 15.6267 38.7976 15.8259C39.0437 16.0251 39.2166 16.2859 39.3162 16.6081C39.4158 16.9304 39.4583 17.2805 39.4436 17.6584L38.6526 17.654C38.6614 17.4226 38.6482 17.1985 38.613 16.9817C38.5808 16.7619 38.5002 16.5803 38.3713 16.4368C38.2424 16.2903 38.0374 16.2126 37.7561 16.2038C37.4807 16.1951 37.2449 16.2507 37.0486 16.3708C36.8523 16.488 36.6897 16.6462 36.5608 16.8454C36.4319 17.0447 36.3293 17.2629 36.2532 17.5002C36.177 17.7375 36.1213 17.9704 36.0862 18.199L35.9016 19.3943C35.8752 19.5788 35.8591 19.7839 35.8533 20.0095C35.8503 20.2351 35.8738 20.4519 35.9236 20.6599C35.9734 20.8679 36.0657 21.0408 36.2004 21.1785C36.3352 21.3161 36.5286 21.3909 36.7805 21.4026C37.0969 21.4143 37.3503 21.3572 37.5408 21.2312C37.7312 21.1052 37.8792 20.9324 37.9846 20.7126C38.0901 20.49 38.1721 20.2424 38.2307 19.97Z" fill="#FAFAFA"/>
<path d="M42.7527 16.2126L40.0676 22.0002H39.2327L42.344 15.6018H42.8669L42.7527 16.2126ZM43.1306 22.0002L42.4407 16.1203L42.5242 15.6018H43.0208L43.9084 22.0002H43.1306ZM43.5349 19.6316L43.4119 20.3259H40.4148L40.5378 19.6316H43.5349Z" fill="#FAFAFA"/>
<path d="M45.8816 15.6018L47.5647 15.6062C47.9426 15.6179 48.2532 15.7043 48.4963 15.8655C48.7424 16.0237 48.9182 16.2419 49.0237 16.5203C49.1321 16.7956 49.1702 17.1179 49.1379 17.487C49.1116 17.7888 49.0354 18.0598 48.9094 18.3C48.7864 18.5403 48.6194 18.7453 48.4084 18.9153C48.2004 19.0852 47.9558 19.22 47.6746 19.3196L47.446 19.4075H45.8464L45.9563 18.7175L47.0286 18.7263C47.2747 18.7234 47.4915 18.6692 47.679 18.5637C47.8665 18.4553 48.0173 18.3074 48.1316 18.1199C48.2488 17.9324 48.3206 17.72 48.3469 17.4827C48.3733 17.2746 48.3674 17.0828 48.3293 16.907C48.2913 16.7312 48.2092 16.5891 48.0833 16.4807C47.9602 16.3694 47.7815 16.3093 47.5471 16.3005L46.554 16.2961L45.5608 22.0002H44.7742L45.8816 15.6018ZM47.7712 22.0002L47.0417 19.0998L47.8196 19.0954L48.6194 21.9431L48.615 22.0002H47.7712Z" fill="#FAFAFA"/>
<path d="M50.8606 22.0002H49.7488L49.8806 21.3103L50.8826 21.3147C51.2927 21.3176 51.634 21.2341 51.9065 21.0642C52.179 20.8913 52.3928 20.657 52.5481 20.3611C52.7034 20.0622 52.8103 19.7239 52.8689 19.3459L53.0315 18.2473C53.0637 18.0159 53.0754 17.7873 53.0667 17.5618C53.0579 17.3332 53.0168 17.1252 52.9436 16.9377C52.8704 16.7502 52.7517 16.5994 52.5876 16.4851C52.4236 16.3708 52.2009 16.3093 51.9197 16.3005L50.7156 16.2961L50.8386 15.6018L51.9417 15.6062C52.3196 15.615 52.6389 15.6941 52.8997 15.8435C53.1604 15.99 53.3655 16.1877 53.5149 16.4368C53.6643 16.6828 53.7625 16.9626 53.8093 17.2761C53.8562 17.5896 53.8577 17.9177 53.8137 18.2605L53.6511 19.3459C53.5925 19.7297 53.4915 20.0842 53.3479 20.4094C53.2043 20.7346 53.0168 21.0173 52.7854 21.2576C52.554 21.4949 52.2771 21.6794 51.9548 21.8113C51.6355 21.9402 51.2708 22.0032 50.8606 22.0002ZM51.3 15.6018L50.1882 22.0002H49.4016L50.509 15.6018H51.3Z" fill="#FAFAFA"/>
<path d="M66.557 8.16895H54.318" stroke="#F7F7F7"/>
</g>
<defs>
<clipPath id="clip0_3397_6937">
<rect width="66.557" height="36.862" fill="white"/>
</clipPath>
</defs>
</svg>
